# xmcd
#
# Track frame offsets:
# 150
# 8240
# 24248
# 43928
# 60581
# 79783
# 97804
# 118276
# 130878
# 146703
# 162943
# 181003
# 201994
#
# Disc length: 2817 seconds
#
#
# Revision: 0
# Processed by: cddbd v1.5.2PL0 Copyright (c) Steve Scherf et al.
# Submitted via: FreeRIP 2.951 
#
DISCID=ab0aff0d
DTITLE=4-God - The Movement
DYEAR=2006
DGENRE=Christian Rap
TTITLE0=Why 4-God "The Intro"
TTITLE1=Party Song
TTITLE2=Who Knew
TTITLE3=The Movement
TTITLE4=Footprints
TTITLE5=Dreams
TTITLE6=Lets Be
TTITLE7=The Stomp
TTITLE8=Do Ya Thang
TTITLE9=Mic Check "4-God Say No More"
TTITLE10=Temptations
TTITLE11=Revelations
TTITLE12=The Outro
EXTD=
EXTT0=
EXTT1=
EXTT2=
EXTT3=
EXTT4=
EXTT5=
EXTT6=
EXTT7=
EXTT8=
EXTT9=
EXTT10=
EXTT11=
EXTT12=
PLAYORDER=
